<?xml version="1.0" encoding="UTF-8" standalone="no"?>
<svg width="89px" height="89px" viewBox="0 0 89 89" version="1.1" xmlns="http://www.w3.org/2000/svg" xmlns:xlink="http://www.w3.org/1999/xlink" xmlns:sketch="http://www.bohemiancoding.com/sketch/ns">
    <!-- Generator: Sketch 3.3.3 (12081) - http://www.bohemiancoding.com/sketch -->
    <title>Imported Layers</title>
    <desc>Created with Sketch.</desc>
    <defs></defs>
    <g id="Page-1" stroke="none" stroke-width="1" fill="none" fill-rule="evenodd" sketch:type="MSPage">
        <g id="icon-build-copy-2" sketch:type="MSArtboardGroup" transform="translate(-20.000000, -19.000000)" fill="#00E3F4">
            <path d="M106.396,87.276 L80.408,61.287 L97.99,43.703 C98.763,42.931 102.556,35.039 102.593,34.96 C106.416,26.969 106.897,24.735 105.171,23.007 C104.741,22.578 103.976,22.066 102.772,22.066 C99.293,22.066 85.275,29.387 84.512,30.152 L66.893,47.772 L40.623,21.503 C39.01,19.889 36.865,19 34.583,19 C32.302,19 30.157,19.889 28.542,21.503 L22.503,27.542 C20.889,29.156 20,31.301 20,33.583 C20,35.865 20.889,38.01 22.503,39.623 L48.772,65.893 L25.052,89.614 C21.326,93.339 21.326,99.403 25.053,103.13 C26.856,104.933 29.257,105.928 31.811,105.928 C34.364,105.928 36.762,104.935 38.565,103.132 L62.287,79.409 L88.275,105.398 C89.89,107.01 92.034,107.899 94.316,107.899 C96.599,107.899 98.743,107.01 100.355,105.397 L106.396,99.356 C109.726,96.027 109.726,90.607 106.396,87.276 L106.396,87.276 Z M88.293,34.478 C90.062,33.498 95.168,30.919 98.912,29.265 C97.218,33.089 94.556,38.306 93.665,39.919 L93.618,39.966 L88.205,34.565 L88.293,34.478 L88.293,34.478 Z M26.53,35.596 C25.992,35.059 25.695,34.344 25.695,33.583 C25.695,32.823 25.992,32.107 26.53,31.569 L32.569,25.53 C33.107,24.992 33.822,24.695 34.583,24.695 C35.344,24.695 36.058,24.992 36.597,25.529 L37.939,26.872 L31.563,33.247 C30.822,33.989 30.822,35.191 31.563,35.932 C31.934,36.303 32.42,36.488 32.906,36.488 C33.392,36.488 33.877,36.303 34.248,35.932 L40.623,29.556 L42.302,31.234 L37.603,35.932 C37.047,36.488 37.047,37.39 37.603,37.946 C37.881,38.224 38.245,38.363 38.61,38.363 C38.974,38.363 39.338,38.224 39.617,37.946 L44.315,33.247 L46.328,35.261 L41.631,39.959 C41.075,40.516 41.075,41.417 41.631,41.973 C41.909,42.25 42.273,42.39 42.637,42.39 C43.001,42.39 43.366,42.25 43.644,41.973 L48.342,37.274 L50.356,39.288 L45.657,43.986 C45.101,44.542 45.101,45.443 45.657,45.999 C45.935,46.277 46.3,46.416 46.664,46.416 C47.028,46.416 47.393,46.277 47.67,45.999 L52.369,41.301 L54.382,43.315 L49.684,48.013 C49.128,48.569 49.128,49.471 49.684,50.026 C49.963,50.305 50.327,50.443 50.691,50.443 C51.056,50.443 51.42,50.305 51.698,50.026 L56.395,45.329 L58.074,47.007 L51.698,53.382 C50.957,54.123 50.957,55.326 51.698,56.067 C52.068,56.437 52.554,56.623 53.04,56.623 C53.526,56.623 54.012,56.437 54.382,56.067 L60.758,49.691 L62.866,51.798 L52.799,61.866 L26.53,35.596 L26.53,35.596 Z M34.511,99.078 C33.79,99.796 32.832,100.194 31.811,100.194 C30.789,100.194 29.828,99.796 29.107,99.076 C27.617,97.585 27.616,95.16 29.106,93.668 L31.706,91.068 L37.117,96.471 L34.511,99.078 L34.511,99.078 Z M33.73,89.044 L86.181,36.59 L91.594,41.991 L39.141,94.447 L33.73,89.044 L33.73,89.044 Z M102.37,95.33 L96.329,101.371 C95.253,102.446 93.376,102.446 92.302,101.371 L66.314,75.381 L76.381,65.314 L78.208,67.141 L71.833,73.517 C71.092,74.258 71.092,75.46 71.833,76.201 C72.204,76.572 72.689,76.757 73.176,76.757 C73.661,76.757 74.146,76.572 74.517,76.201 L80.892,69.826 L82.571,71.503 L77.873,76.201 C77.316,76.757 77.316,77.658 77.873,78.214 C78.151,78.493 78.516,78.631 78.88,78.631 C79.244,78.631 79.608,78.493 79.886,78.214 L84.585,73.517 L86.598,75.53 L81.9,80.228 C81.344,80.785 81.344,81.685 81.9,82.242 C82.179,82.52 82.543,82.659 82.907,82.659 C83.271,82.659 83.636,82.52 83.913,82.242 L88.611,77.543 L90.625,79.557 L85.927,84.255 C85.371,84.812 85.371,85.713 85.927,86.269 C86.205,86.547 86.569,86.686 86.933,86.686 C87.298,86.686 87.662,86.547 87.94,86.269 L92.639,81.571 L94.651,83.584 L89.954,88.283 C89.398,88.838 89.398,89.74 89.954,90.295 C90.232,90.574 90.597,90.712 90.961,90.712 C91.325,90.712 91.689,90.574 91.968,90.295 L96.665,85.598 L98.344,87.276 L91.968,93.651 C91.225,94.391 91.225,95.593 91.968,96.335 C92.338,96.706 92.824,96.891 93.309,96.891 C93.795,96.891 94.281,96.706 94.651,96.335 L101.028,89.96 L102.369,91.302 C103.479,92.413 103.479,94.219 102.37,95.33 L102.37,95.33 Z" id="Imported-Layers" sketch:type="MSShapeGroup"></path>
        </g>
    </g>
</svg>