<?xml version="1.0" encoding="UTF-8" standalone="no"?>
<svg width="150px" height="200px" viewBox="0 0 150 200" version="1.1" xmlns="http://www.w3.org/2000/svg" xmlns:xlink="http://www.w3.org/1999/xlink" xmlns:sketch="http://www.bohemiancoding.com/sketch/ns">
    <!-- Generator: Sketch 3.3.3 (12081) - http://www.bohemiancoding.com/sketch -->
    <title>Imported Layers</title>
    <desc>Created with Sketch.</desc>
    <defs></defs>
    <g id="Page-1" stroke="none" stroke-width="1" fill="none" fill-rule="evenodd" sketch:type="MSPage">
        <g id="icon-book-copy" sketch:type="MSArtboardGroup" transform="translate(-5.000000, 0.000000)" fill="#00E3F4">
            <path d="M151.01,0 L25,0 C13.965,0 5,8.944 5,19.989 L5,162.003 C5,173.052 13.956,182 25,182 L40,182 L40,199.991 L55.5,191.81 L71,199.991 L71,182 L151.01,182 C153.08,182 154.762,180.414 154.961,178.39 C154.974,178.259 155,178.133 155,177.999 L155,3.983 C155,1.777 153.215,0 151.01,0 L151.01,0 Z M64,188.381 L55.5,183.894 L47,188.381 L47,157 L64,157 L64,188.381 L64,188.381 Z M146,173 L71,173 L71,157 L126.003,157 C127.935,157 129.503,155.433 129.503,153.5 C129.503,151.567 127.935,150 126.003,150 L33.003,150 C31.07,150 29.503,151.567 29.503,153.5 C29.503,155.433 31.07,157 33.003,157 L40,157 L40,173 L25,173 C18.936,173 14,168.058 14,161.993 L14,146.003 C14,139.937 18.936,135 25,135 L146,135 L146,173 L146,173 Z M146,126 L25,126 C20.935,126 17.158,127.222 14,129.309 L14,19.989 C14,13.925 18.936,9 25,9 L146,9 L146,126 L146,126 Z" id="Imported-Layers" sketch:type="MSShapeGroup"></path>
        </g>
    </g>
</svg>