<?xml version="1.0" encoding="iso-8859-1"?>
<!-- Generator: Adobe Illustrator 16.0.0, SVG Export Plug-In . SVG Version: 6.00 Build 0)  -->
<!DOCTYPE svg PUBLIC "-//W3C//DTD SVG 1.1//EN" "http://www.w3.org/Graphics/SVG/1.1/DTD/svg11.dtd">
<svg version="1.1" id="Layer_1" xmlns="http://www.w3.org/2000/svg" xmlns:xlink="http://www.w3.org/1999/xlink" x="0px" y="0px"
	 width="89.998px" height="90px" viewBox="0 0 89.998 90" style="enable-background:new 0 0 89.998 90;" xml:space="preserve">
<path style="fill-rule:evenodd;clip-rule:evenodd;fill:#00E3F4;" d="M87.864,68.527L72.391,53.054
	c-2.845-2.845-7.465-2.847-10.312,0.002L59.5,55.634l-2.579-2.578l3.871-3.871c4.668-4.668,5.245-11.9,1.736-17.206l2.342-2.343
	c4.938,3.161,11.589,2.592,15.901-1.72c1.068-1.068,1.068-2.8,0-3.868L66.59,9.867c-1.067-1.068-2.799-1.068-3.867,0
	c-4.312,4.312-4.881,10.964-1.72,15.902l-2.342,2.342c-5.307-3.51-12.54-2.932-17.208,1.736l-3.871,3.87l-3.219-3.219l2.579-2.579
	c2.843-2.844,2.849-7.464,0-10.313L21.471,2.134c-2.845-2.845-7.465-2.847-10.312,0.001L2.134,11.16
	c-2.843,2.843-2.848,7.465,0,10.312l15.472,15.474c2.845,2.844,7.465,2.845,10.313-0.002l2.578-2.578l3.219,3.219L20.821,50.48
	c-4.668,4.668-5.246,11.9-1.736,17.207l-2.129,2.129c-1.068,1.068-1.068,2.799,0,3.867c1.068,1.068,2.8,1.068,3.868,0l2.129-2.128
	c5.306,3.509,12.539,2.931,17.207-1.737l12.895-12.895l2.579,2.578l-2.579,2.578c-2.843,2.844-2.848,7.466-0.001,10.312
	l15.473,15.475c2.846,2.844,7.465,2.846,10.312-0.002l9.024-9.025C90.707,75.997,90.711,71.375,87.864,68.527z M65.034,16.045
	l9.561,9.561c-2.653,1.122-5.843,0.603-8.004-1.558C64.431,21.888,63.913,18.699,65.034,16.045z M6,17.605
	c-0.71-0.71-0.709-1.866,0.001-2.577l9.024-9.025c0.711-0.71,1.868-0.712,2.578-0.001l5.802,5.803L11.803,23.408L6,17.605z
	 M33.075,24.052l-9.024,9.025c-0.711,0.71-1.868,0.71-2.578,0l-5.802-5.802l11.603-11.603l5.803,5.804
	C33.787,22.186,33.787,23.342,33.075,24.052z M36.292,65.951c-3.198,3.197-8.401,3.196-11.601-0.002
	c-3.199-3.199-3.2-8.404-0.002-11.602l20.633-20.632c3.197-3.198,8.401-3.196,11.601,0.002s3.199,8.403,0.002,11.6L36.292,65.951z
	 M56.92,68.525c-0.71-0.71-0.709-1.865,0.002-2.576l9.023-9.025c0.712-0.71,1.868-0.712,2.578-0.002l5.803,5.803L62.723,74.328
	L56.92,68.525z M83.995,74.972l-9.023,9.025c-0.711,0.711-1.867,0.711-2.578,0l-5.803-5.803l11.603-11.603l5.804,5.804
	C84.708,73.106,84.708,74.262,83.995,74.972z"/>
</svg>
