<?xml version="1.0" encoding="UTF-8" standalone="no"?>
<svg width="99px" height="100px" viewBox="0 0 99 100" version="1.1" xmlns="http://www.w3.org/2000/svg" xmlns:xlink="http://www.w3.org/1999/xlink" xmlns:sketch="http://www.bohemiancoding.com/sketch/ns">
    <!-- Generator: Sketch 3.3.3 (12081) - http://www.bohemiancoding.com/sketch -->
    <title>Imported Layers</title>
    <desc>Created with Sketch.</desc>
    <defs>
        <path id="path-1" d="M0,8 C0,3.582 3.585,0 7.998,0 L32.002,0 C36.419,0 40,3.589 40,8 L40,22 C40,26.418 36.415,30 32.002,30 L7.998,30 C3.581,30 0,26.411 0,22 L0,8 L0,8 Z"></path>
        <path id="path-3" d="M0,8 C0,3.582 3.585,0 7.999,0 L32.002,0 C36.419,0 40,3.589 40,8 L40,22 C40,26.418 36.415,30 32.002,30 L7.999,30 C3.581,30 0,26.411 0,22 L0,8 L0,8 Z"></path>
    </defs>
    <g id="Page-1" stroke="none" stroke-width="1" fill="none" fill-rule="evenodd" sketch:type="MSPage">
        <g id="icon-support" sketch:type="MSArtboardGroup">
            <g id="Imported-Layers" sketch:type="MSLayerGroup" transform="translate(49.500000, 50.000000) rotate(45.000000) translate(-49.500000, -50.000000) translate(-10.000000, 6.000000)">
                <path d="M60,82 C51.729,82 45,75.273 45,67.004 L45,34.996 C45,26.727 51.729,20 60,20 C68.271,20 75,26.727 75,34.996 L75,67.004 C75,75.273 68.271,82 60,82 L60,82 Z M60,26 C55.038,26 51,30.036 51,34.996 L51,67.004 C51,71.965 55.038,76 60,76 C64.963,76 69,71.965 69,67.004 L69,34.996 C69,30.036 64.963,26 60,26 L60,26 Z" id="Fill-1" fill="#4D3669" sketch:type="MSShapeGroup"></path>
                <path d="M60,17 C52.28,17 46,10.72 46,3 C46,1.343 47.343,0 49,0 L71,0 C72.657,0 74,1.343 74,3 C74,10.72 67.72,17 60,17 L60,17 Z M52.584,6 C53.773,8.929 56.649,11 60,11 C63.351,11 66.228,8.929 67.416,6 L52.584,6 L52.584,6 Z" id="Fill-2" fill="#4D3669" sketch:type="MSShapeGroup"></path>
                <g id="Group-5" transform="translate(79.000000, 29.000000)">
                    <mask id="mask-2" sketch:name="Clip 4" fill="white">
                        <use xlink:href="#path-1"></use>
                    </mask>
                    <g id="Clip-4"></g>
                    <path d="M32.002,36 L7.998,36 C0.279,36 -6,29.72 -6,22 L-6,8 C-6,0.28 0.279,-6 7.998,-6 L32.002,-6 C39.721,-6 46,0.28 46,8 L46,22 C46,29.72 39.721,36 32.002,36 L32.002,36 Z M7.998,6 C6.896,6 6,6.897 6,8 L6,22 C6,23.103 6.896,24 7.998,24 L32.002,24 C33.104,24 34,23.103 34,22 L34,8 C34,6.897 33.104,6 32.002,6 L7.998,6 L7.998,6 Z" id="Fill-3" fill="#4D3669" sketch:type="MSShapeGroup" mask="url(#mask-2)"></path>
                </g>
                <g id="Group-8" transform="translate(0.000000, 29.000000)">
                    <mask id="mask-4" sketch:name="Clip 7" fill="white">
                        <use xlink:href="#path-3"></use>
                    </mask>
                    <g id="Clip-7"></g>
                    <path d="M32.002,36 L7.999,36 C0.28,36 -6,29.72 -6,22 L-6,8 C-6,0.28 0.28,-6 7.999,-6 L32.002,-6 C39.72,-6 46,0.28 46,8 L46,22 C46,29.72 39.72,36 32.002,36 L32.002,36 Z M7.999,6 C6.896,6 6,6.897 6,8 L6,22 C6,23.103 6.896,24 7.999,24 L32.002,24 C33.104,24 34,23.103 34,22 L34,8 C34,6.897 33.104,6 32.002,6 L7.999,6 L7.999,6 Z" id="Fill-6" fill="#4D3669" sketch:type="MSShapeGroup" mask="url(#mask-4)"></path>
                </g>
                <path d="M81.5,47 L72.5,47 C70.843,47 69.5,45.657 69.5,44 C69.5,42.343 70.843,41 72.5,41 L81.5,41 C83.157,41 84.5,42.343 84.5,44 C84.5,45.657 83.157,47 81.5,47" id="Fill-9" fill="#4D3669" sketch:type="MSShapeGroup"></path>
                <path d="M46.5,47 L37.5,47 C35.843,47 34.5,45.657 34.5,44 C34.5,42.343 35.843,41 37.5,41 L46.5,41 C48.157,41 49.5,42.343 49.5,44 C49.5,45.657 48.157,47 46.5,47" id="Fill-10" fill="#4D3669" sketch:type="MSShapeGroup"></path>
                <path d="M60,25 C58.343,25 57,23.657 57,22 L57,16 C57,14.343 58.343,13 60,13 C61.657,13 63,14.343 63,16 L63,22 C63,23.657 61.657,25 60,25" id="Fill-11" fill="#4D3669" sketch:type="MSShapeGroup"></path>
                <path d="M60,88 C58.343,88 57,86.657 57,85 L57,79 C57,77.343 58.343,76 60,76 C61.657,76 63,77.343 63,79 L63,85 C63,86.657 61.657,88 60,88" id="Fill-12" fill="#4D3669" sketch:type="MSShapeGroup"></path>
                <path d="M96,29.5 L102,29.5 L102,58.522 L96,58.522 L96,29.5 Z" id="Fill-13" fill="#4D3669" sketch:type="MSShapeGroup"></path>
                <path d="M17,29.5 L23,29.5 L23,58.522 L17,58.522 L17,29.5 Z" id="Fill-14" fill="#4D3669" sketch:type="MSShapeGroup"></path>
            </g>
        </g>
    </g>
</svg>