<?xml version="1.0" encoding="UTF-8" standalone="no"?>
<svg width="96px" height="95px" viewBox="0 0 96 95" version="1.1" xmlns="http://www.w3.org/2000/svg" xmlns:xlink="http://www.w3.org/1999/xlink" xmlns:sketch="http://www.bohemiancoding.com/sketch/ns">
    <!-- Generator: Sketch 3.3.3 (12081) - http://www.bohemiancoding.com/sketch -->
    <title>icon-build</title>
    <desc>Created with Sketch.</desc>
    <defs></defs>
    <g id="Page-1" stroke="none" stroke-width="1" fill="none" fill-rule="evenodd" sketch:type="MSPage">
        <g id="icon-build" sketch:type="MSArtboardGroup" transform="translate(-17.000000, -16.000000)">
            <g sketch:type="MSLayerGroup" transform="translate(13.000000, 12.000000)">
                <g id="ruler" transform="translate(50.792893, 52.000000) rotate(-45.000000) translate(-50.792893, -52.000000) translate(39.792893, -3.500000)" stroke="#4D3669" sketch:type="MSShapeGroup">
                    <rect id="Rectangle-5" stroke-width="6" x="1" y="1" width="21" height="110" rx="6"></rect>
                    <path d="M19.5,11 L9.5,11" id="Line" stroke-width="4" stroke-linecap="round"></path>
                    <path d="M19.5,41 L9.5,41" id="Line-Copy" stroke-width="4" stroke-linecap="round"></path>
                    <path d="M19.5,71 L9.5,71" id="Line-Copy-2" stroke-width="4" stroke-linecap="round"></path>
                    <path d="M19.5,101 L9.5,101" id="Line-Copy-3" stroke-width="4" stroke-linecap="round"></path>
                    <path d="M19,17 L12,17" id="Line-Copy-4" stroke-width="3" stroke-linecap="round"></path>
                    <path d="M19,47 L12,47" id="Line-Copy-8" stroke-width="3" stroke-linecap="round"></path>
                    <path d="M19,77 L12,77" id="Line-Copy-12" stroke-width="3" stroke-linecap="round"></path>
                    <path d="M19,23 L12,23" id="Line-Copy-5" stroke-width="3" stroke-linecap="round"></path>
                    <path d="M19,53 L12,53" id="Line-Copy-9" stroke-width="3" stroke-linecap="round"></path>
                    <path d="M19,83 L12,83" id="Line-Copy-13" stroke-width="3" stroke-linecap="round"></path>
                    <path d="M19,29 L12,29" id="Line-Copy-7" stroke-width="3" stroke-linecap="round"></path>
                    <path d="M19,59 L12,59" id="Line-Copy-10" stroke-width="3" stroke-linecap="round"></path>
                    <path d="M19,89 L12,89" id="Line-Copy-14" stroke-width="3" stroke-linecap="round"></path>
                    <path d="M19,35 L12,35" id="Line-Copy-6" stroke-width="3" stroke-linecap="round"></path>
                    <path d="M19,65 L12,65" id="Line-Copy-11" stroke-width="3" stroke-linecap="round"></path>
                    <path d="M19,95 L12,95" id="Line-Copy-15" stroke-width="3" stroke-linecap="round"></path>
                </g>
                <g id="screwdriver" transform="translate(51.853553, 51.853553) rotate(45.000000) translate(-51.853553, -51.853553) translate(35.853553, -4.646447)" sketch:type="MSShapeGroup">
                    <path d="M9,28.9387342 C9,28.7771051 12.4998932,30.0279377 16,30.0387987 C19.4998932,30.0496591 23,28.8205377 23,28.9908412 L23,105.927825 C23,109.791883 19.8581267,112.924321 16,112.924321 L16,112.924321 C12.1340068,112.924321 9,109.79805 9,105.923641 L9,28.9387342 Z" id="Rectangle-1" stroke="#4D3669" stroke-width="6" fill="#F2F2F2"></path>
                    <path d="M15.5,31 C24.0604136,31 31,24.0604136 31,15.5 C31,8.88193687 26.7519427,3.01582532 20.9142132,0.792893225 C20.9142132,2.79289322 20.9142132,11.7928932 20.9142136,13.7928932 C17.9142132,17.7928932 12.9142132,17.7928932 9.91421356,13.7928932 C9.91421318,11.7928932 9.91421318,2.79289322 9.91421318,0.792893225 C7.86112167,1.57839599 6.06629168,3.0133981 4.53984489,4.53984489 C1.73489659,7.34479319 7.10542736e-14,11.2197932 7.10542736e-14,15.5 C7.10542736e-14,24.0604136 6.93958638,31 15.5,31 Z" id="Oval-2" stroke="#4D3669" stroke-width="6" fill="#F2F2F2"></path>
                    <circle id="Oval-3" fill="#4D3669" cx="16" cy="104.242641" r="2"></circle>
                </g>
            </g>
        </g>
    </g>
</svg>