<?xml version="1.0" encoding="iso-8859-1"?>
<!-- Generator: Adobe Illustrator 16.0.0, SVG Export Plug-In . SVG Version: 6.00 Build 0)  -->
<!DOCTYPE svg PUBLIC "-//W3C//DTD SVG 1.1//EN" "http://www.w3.org/Graphics/SVG/1.1/DTD/svg11.dtd">
<svg version="1.1" xmlns="http://www.w3.org/2000/svg" xmlns:xlink="http://www.w3.org/1999/xlink" x="0px" y="0px"
	 width="89.998px" height="90px" viewBox="0 0 89.998 90" style="enable-background:new 0 0 89.998 90;" xml:space="preserve">
<g id="Layer_1" style="display:none;">
	<path style="display:inline;fill-rule:evenodd;clip-rule:evenodd;fill:#00E3F4;" d="M87.864,68.527L72.391,53.054
		c-2.845-2.845-7.465-2.847-10.312,0.002L59.5,55.634l-2.579-2.578l3.871-3.871c4.668-4.668,5.245-11.9,1.736-17.206l2.342-2.343
		c4.938,3.161,11.589,2.592,15.901-1.72c1.068-1.068,1.068-2.8,0-3.868L66.59,9.867c-1.067-1.068-2.799-1.068-3.867,0
		c-4.312,4.312-4.881,10.964-1.72,15.902l-2.342,2.342c-5.307-3.51-12.54-2.932-17.208,1.736l-3.871,3.87l-3.219-3.219l2.579-2.579
		c2.843-2.844,2.849-7.464,0-10.313L21.471,2.134c-2.845-2.845-7.465-2.847-10.312,0.001L2.134,11.16
		c-2.843,2.843-2.848,7.465,0,10.312l15.472,15.474c2.845,2.844,7.465,2.845,10.313-0.002l2.578-2.578l3.219,3.219L20.821,50.48
		c-4.668,4.668-5.246,11.9-1.736,17.207l-2.129,2.129c-1.068,1.068-1.068,2.799,0,3.867c1.068,1.068,2.8,1.068,3.868,0l2.129-2.128
		c5.306,3.509,12.539,2.931,17.207-1.737l12.895-12.895l2.579,2.578l-2.579,2.578c-2.843,2.844-2.848,7.466-0.001,10.312
		l15.473,15.475c2.846,2.844,7.465,2.846,10.312-0.002l9.024-9.025C90.707,75.997,90.711,71.375,87.864,68.527z M65.034,16.045
		l9.561,9.561c-2.653,1.122-5.843,0.603-8.004-1.558C64.431,21.888,63.913,18.699,65.034,16.045z M6,17.605
		c-0.71-0.71-0.709-1.866,0.001-2.577l9.024-9.025c0.711-0.71,1.868-0.712,2.578-0.001l5.802,5.803L11.803,23.408L6,17.605z
		 M33.075,24.052l-9.024,9.025c-0.711,0.71-1.868,0.71-2.578,0l-5.802-5.802l11.603-11.603l5.803,5.804
		C33.787,22.186,33.787,23.342,33.075,24.052z M36.292,65.951c-3.198,3.197-8.401,3.196-11.601-0.002
		c-3.199-3.199-3.2-8.404-0.002-11.602l20.633-20.632c3.197-3.198,8.401-3.196,11.601,0.002s3.199,8.403,0.002,11.6L36.292,65.951z
		 M56.92,68.525c-0.71-0.71-0.709-1.865,0.002-2.576l9.023-9.025c0.712-0.71,1.868-0.712,2.578-0.002l5.803,5.803L62.723,74.328
		L56.92,68.525z M83.995,74.972l-9.023,9.025c-0.711,0.711-1.867,0.711-2.578,0l-5.803-5.803l11.603-11.603l5.804,5.804
		C84.708,73.106,84.708,74.262,83.995,74.972z"/>
</g>
<g id="Layer_2">
	<title>icon-build</title>
	<desc>Created with Sketch.</desc>
	<g>
		<circle style="fill:#00E3F4;" cx="12.742" cy="77.454" r="1.898"/>
		<path style="fill:#00E3F4;" d="M60.32,43.3l8.478-8.477c1.036,0.188,2.095,0.295,3.17,0.295c4.688,0,9.099-1.827,12.416-5.144
			c5.192-5.191,6.673-13.156,3.686-19.818l-1.69-3.77L75.482,17.285c-1.084-0.019-1.97-0.39-2.564-1.077
			c-0.503-0.58-0.773-1.37-0.791-2.28L83.028,3.026l-3.779-1.687C77.231,0.438,74.849,0,71.967,0c-4.69,0-9.1,1.827-12.417,5.143
			c-4.514,4.514-6.031,10.889-4.594,16.674l-8.061,8.061L20.623,3.604c-1.613-1.614-3.758-2.502-6.04-2.502
			s-4.427,0.889-6.041,2.502l-6.04,6.04C0.889,11.258,0,13.403,0,15.685c0,2.282,0.889,4.427,2.502,6.041l26.273,26.273
			L4.902,71.872c-1.795,1.795-2.784,4.18-2.783,6.715c0.001,2.534,0.99,4.916,2.782,6.708c1.792,1.792,4.176,2.779,6.713,2.779
			c2.535,0,4.917-0.986,6.707-2.776l23.875-23.876L68.275,87.5C69.889,89.112,72.034,90,74.316,90s4.427-0.889,6.039-2.502
			l6.041-6.041c3.33-3.329,3.33-8.749,0-12.08L60.32,43.3z M63.577,9.17c2.241-2.241,5.221-3.475,8.391-3.475
			c0.112,0,0.225,0.001,0.336,0.002l-5.624,5.625l-0.135,0.939c-0.419,2.929,0.317,5.656,2.07,7.678
			c2.018,2.326,5.161,3.411,8.533,2.926l0.94-0.134l5.786-5.787c0.092,3.294-1.144,6.629-3.519,9.003
			c-2.241,2.241-5.221,3.476-8.389,3.476c-3.17,0-6.149-1.234-8.391-3.475C58.952,21.323,58.952,13.795,63.577,9.17z M6.529,17.698
			c-0.538-0.538-0.834-1.252-0.834-2.013c0-0.76,0.296-1.476,0.835-2.014l6.039-6.04c0.538-0.538,1.253-0.834,2.014-0.834
			c0.761,0,1.475,0.296,2.013,0.834l1.342,1.343l-6.375,6.375c-0.741,0.741-0.741,1.943,0,2.685
			c0.371,0.371,0.856,0.556,1.342,0.556s0.972-0.186,1.342-0.556l6.375-6.376l1.679,1.678l-4.698,4.698
			c-0.556,0.556-0.556,1.458,0,2.014c0.278,0.278,0.642,0.417,1.006,0.417s0.729-0.139,1.007-0.417l4.698-4.698l2.013,2.014
			l-4.697,4.698c-0.556,0.556-0.556,1.458,0,2.013c0.278,0.278,0.642,0.417,1.006,0.417s0.729-0.139,1.007-0.417l4.698-4.698
			l2.014,2.014l-4.699,4.698c-0.556,0.556-0.556,1.457,0,2.013c0.278,0.278,0.643,0.417,1.007,0.417s0.729-0.139,1.006-0.417
			l4.699-4.698l2.013,2.014l-4.698,4.698c-0.556,0.556-0.556,1.458,0,2.013c0.278,0.278,0.643,0.417,1.007,0.417
			s0.729-0.139,1.006-0.417l4.698-4.698l1.678,1.678l-6.376,6.375c-0.741,0.741-0.741,1.943,0,2.685
			c0.371,0.371,0.856,0.556,1.342,0.556s0.972-0.186,1.342-0.556l6.375-6.376l2.112,2.112L32.802,43.972L6.529,17.698z
			 M14.295,81.27c-0.715,0.715-1.667,1.109-2.68,1.109c-1.016,0-1.97-0.396-2.687-1.112c-0.718-0.718-1.113-1.671-1.113-2.683
			c0-1.014,0.395-1.967,1.114-2.687L57.43,27.396c0.615,0.908,1.316,1.775,2.12,2.579c1.033,1.034,2.183,1.904,3.403,2.637
			L14.295,81.27z M82.37,77.431l-6.041,6.041c-1.076,1.075-2.953,1.075-4.027,0L46.225,57.394l10.067-10.067l1.915,1.916
			l-6.375,6.376c-0.741,0.741-0.741,1.942,0,2.684c0.371,0.371,0.856,0.557,1.343,0.557c0.485,0,0.971-0.186,1.342-0.557
			l6.375-6.375l1.679,1.678l-4.698,4.697c-0.557,0.557-0.557,1.457,0,2.014c0.278,0.278,0.643,0.417,1.007,0.417
			s0.729-0.139,1.006-0.417l4.699-4.697l2.013,2.013L61.9,62.33c-0.557,0.557-0.557,1.457,0,2.014
			c0.278,0.278,0.643,0.417,1.007,0.417s0.729-0.139,1.006-0.417l4.698-4.698l2.014,2.014l-4.698,4.698
			c-0.556,0.557-0.556,1.458,0,2.014c0.278,0.278,0.643,0.417,1.007,0.417s0.729-0.139,1.007-0.417l4.698-4.698l2.013,2.014
			l-4.697,4.698c-0.556,0.556-0.556,1.457,0,2.013c0.278,0.278,0.643,0.417,1.007,0.417s0.729-0.139,1.007-0.417l4.697-4.697
			l1.679,1.678l-6.376,6.375c-0.742,0.74-0.742,1.942,0,2.685c0.37,0.37,0.856,0.556,1.342,0.556s0.972-0.186,1.342-0.556
			l6.377-6.375l1.341,1.342C83.479,74.514,83.479,76.321,82.37,77.431z"/>
	</g>
</g>
</svg>
