<?xml version="1.0" encoding="UTF-8" standalone="no"?>
<svg width="170px" height="31px" viewBox="0 0 170 31" version="1.1" xmlns="http://www.w3.org/2000/svg" xmlns:xlink="http://www.w3.org/1999/xlink">
    <!-- Generator: Sketch 3.8.1 (29687) - http://www.bohemiancoding.com/sketch -->
    <title>Group 2</title>
    <desc>Created with Sketch.</desc>
    <defs></defs>
    <g id="Page-1" stroke="none" stroke-width="1" fill="none" fill-rule="evenodd">
        <g id="protocamp-quiz" transform="translate(0.000000, -1.000000)" fill="#F05638">
            <g id="Page-1">
                <g id="Group">
                    <g id="Group-2" transform="translate(0.000000, 1.000000)">
                        <path d="M7.4023,4.6166 L7.4023,10.7776 L9.4763,10.7776 C10.6263,10.7776 11.5393,10.5346 12.2153,10.0506 C12.8913,9.5666 13.2303,8.7996 13.2303,7.7496 C13.2303,6.7716 12.9123,6.0046 12.2763,5.4496 C11.6403,4.8946 10.7073,4.6166 9.4763,4.6166 L7.4023,4.6166 L7.4023,4.6166 Z M0.0003,0.4536 L10.5963,0.4536 C11.7773,0.4536 12.8613,0.6376 13.8503,1.0066 C14.8393,1.3746 15.6923,1.8716 16.4083,2.4976 C17.1253,3.1236 17.6853,3.8446 18.0893,4.6616 C18.4923,5.4796 18.6943,6.3326 18.6943,7.2206 C18.6943,8.2896 18.5353,9.2916 18.2173,10.2246 C17.8993,11.1586 17.4073,11.9686 16.7413,12.6546 C16.0753,13.3396 15.2333,13.8826 14.2143,14.2816 C13.1943,14.6796 11.9883,14.8786 10.5963,14.8786 L7.4023,14.8786 L7.4023,19.2536 L9.5063,19.2536 L9.5063,23.4006 L0.0003,23.4006 L0.0003,19.2536 L2.3773,19.2536 L2.3773,4.6166 L0.0003,4.6166 L0.0003,0.4536 L0.0003,0.4536 Z" id="Fill-1"></path>
                        <path d="M34.4312,13.4257 L30.1782,13.4257 L30.1782,11.8067 C29.7642,11.8067 29.3852,11.8347 29.0422,11.8887 C28.6992,11.9457 28.3992,12.0387 28.1422,12.1697 C27.8842,12.3007 27.6672,12.4827 27.4912,12.7147 C27.3142,12.9467 27.1902,13.2347 27.1202,13.5777 L27.1202,19.2537 L30.3142,19.2537 L30.3142,23.4007 L20.0812,23.4007 L20.0812,19.2537 L22.4282,19.2537 L22.4282,11.8677 L20.1122,11.8677 L20.1122,7.7197 L27.0902,7.7197 L27.0902,8.8247 C27.5342,8.4717 28.0332,8.1987 28.5882,8.0077 C29.1432,7.8157 29.7482,7.7197 30.4052,7.7197 C31.0712,7.7197 31.7572,7.7247 32.4632,7.7347 C33.1692,7.7447 33.8262,7.7497 34.4312,7.7497 L34.4312,13.4257 L34.4312,13.4257 Z" id="Fill-3"></path>
                        <path d="M40.5444,15.5 C40.5444,16.096 40.6454,16.643 40.8474,17.143 C41.0484,17.641 41.3244,18.072 41.6714,18.436 C42.0204,18.799 42.4234,19.082 42.8824,19.283 C43.3424,19.486 43.8344,19.586 44.3584,19.586 C44.8934,19.586 45.3904,19.488 45.8494,19.291 C46.3094,19.094 46.7074,18.814 47.0454,18.451 C47.3834,18.088 47.6484,17.656 47.8404,17.156 C48.0314,16.658 48.1274,16.105 48.1274,15.5 C48.1274,14.875 48.0314,14.309 47.8404,13.805 C47.6484,13.301 47.3834,12.871 47.0454,12.518 C46.7074,12.164 46.3094,11.895 45.8494,11.708 C45.3904,11.522 44.8934,11.434 44.3584,11.444 C43.8344,11.434 43.3424,11.522 42.8824,11.708 C42.4234,11.895 42.0204,12.164 41.6714,12.518 C41.3244,12.871 41.0484,13.301 40.8474,13.805 C40.6454,14.309 40.5444,14.875 40.5444,15.5 M36.0184,15.5 C36.0184,14.359 36.2254,13.289 36.6394,12.291 C37.0524,11.292 37.6274,10.419 38.3644,9.672 C39.1014,8.926 39.9794,8.335 40.9984,7.901 C42.0174,7.468 43.1374,7.25 44.3584,7.25 C45.5794,7.25 46.7024,7.468 47.7264,7.901 C48.7514,8.335 49.6314,8.926 50.3684,9.672 C51.1044,10.419 51.6774,11.292 52.0864,12.291 C52.4954,13.289 52.6994,14.359 52.6994,15.5 C52.6994,16.641 52.5004,17.713 52.1014,18.717 C51.7024,19.721 51.1374,20.598 50.4064,21.35 C49.6744,22.102 48.7964,22.695 47.7724,23.129 C46.7484,23.563 45.6094,23.779 44.3584,23.779 C43.0974,23.779 41.9544,23.563 40.9304,23.129 C39.9064,22.695 39.0304,22.105 38.3044,21.357 C37.5774,20.611 37.0154,19.736 36.6164,18.73 C36.2174,17.727 36.0184,16.65 36.0184,15.5" id="Fill-5"></path>
                        <path d="M60.4258,7.7197 L63.5588,7.7197 L63.5588,11.6857 L60.3958,11.6857 L60.3648,18.3147 C60.3648,18.6987 60.3958,19.0097 60.4558,19.2457 C60.5168,19.4827 60.6048,19.6717 60.7208,19.8147 C60.8368,19.9547 60.9758,20.0507 61.1368,20.1017 C61.2988,20.1527 61.4858,20.1777 61.6968,20.1777 C62.0808,20.1777 62.4188,20.1387 62.7118,20.0627 C63.0038,19.9887 63.2968,19.9007 63.5898,19.7987 L64.2398,22.7207 C63.7258,23.0427 63.1528,23.3007 62.5218,23.4917 C61.8918,23.6837 61.1418,23.7797 60.2748,23.7797 C59.6588,23.7797 59.0708,23.6737 58.5108,23.4607 C57.9508,23.2497 57.4588,22.9297 57.0348,22.4997 C56.6118,22.0727 56.2728,21.5347 56.0208,20.8887 C55.7688,20.2417 55.6478,19.4907 55.6578,18.6327 L55.7028,11.6857 L53.4478,11.6857 L53.4478,7.7197 L55.7178,7.7197 L55.7488,3.9657 L60.4558,1.7257 L60.4258,7.7197 L60.4258,7.7197 Z" id="Fill-7"></path>
                        <path d="M69.9146,15.5 C69.9146,16.096 70.0156,16.643 70.2176,17.143 C70.4186,17.641 70.6946,18.072 71.0416,18.436 C71.3906,18.799 71.7936,19.082 72.2526,19.283 C72.7126,19.486 73.2046,19.586 73.7286,19.586 C74.2636,19.586 74.7606,19.488 75.2196,19.291 C75.6796,19.094 76.0776,18.814 76.4156,18.451 C76.7536,18.088 77.0186,17.656 77.2106,17.156 C77.4016,16.658 77.4976,16.105 77.4976,15.5 C77.4976,14.875 77.4016,14.309 77.2106,13.805 C77.0186,13.301 76.7536,12.871 76.4156,12.518 C76.0776,12.164 75.6796,11.895 75.2196,11.708 C74.7606,11.522 74.2636,11.434 73.7286,11.444 C73.2046,11.434 72.7126,11.522 72.2526,11.708 C71.7936,11.895 71.3906,12.164 71.0416,12.518 C70.6946,12.871 70.4186,13.301 70.2176,13.805 C70.0156,14.309 69.9146,14.875 69.9146,15.5 M65.3886,15.5 C65.3886,14.359 65.5956,13.289 66.0096,12.291 C66.4226,11.292 66.9976,10.419 67.7346,9.672 C68.4716,8.926 69.3496,8.335 70.3686,7.901 C71.3876,7.468 72.5076,7.25 73.7286,7.25 C74.9496,7.25 76.0726,7.468 77.0966,7.901 C78.1216,8.335 79.0016,8.926 79.7386,9.672 C80.4746,10.419 81.0476,11.292 81.4566,12.291 C81.8656,13.289 82.0696,14.359 82.0696,15.5 C82.0696,16.641 81.8706,17.713 81.4716,18.717 C81.0726,19.721 80.5076,20.598 79.7766,21.35 C79.0446,22.102 78.1666,22.695 77.1426,23.129 C76.1186,23.563 74.9796,23.779 73.7286,23.779 C72.4676,23.779 71.3246,23.563 70.3006,23.129 C69.2766,22.695 68.4006,22.105 67.6746,21.357 C66.9476,20.611 66.3856,19.736 65.9866,18.73 C65.5876,17.727 65.3886,16.65 65.3886,15.5" id="Fill-9"></path>
                        <path d="M95.4624,13.1386 C95.0284,12.5936 94.5444,12.1816 94.0094,11.9046 C93.4744,11.6276 92.8434,11.5096 92.1174,11.5496 C91.5314,11.5096 90.9994,11.5906 90.5204,11.7916 C90.0414,11.9936 89.6274,12.2756 89.2784,12.6386 C88.9314,13.0016 88.6604,13.4336 88.4694,13.9336 C88.2774,14.4316 88.1814,14.9956 88.1814,15.6206 C88.1814,16.1756 88.2824,16.7016 88.4844,17.1956 C88.6864,17.6896 88.9614,18.1156 89.3094,18.4746 C89.6574,18.8316 90.0714,19.1136 90.5504,19.3146 C91.0294,19.5156 91.5514,19.6366 92.1174,19.6776 C92.5914,19.6366 93.0234,19.5386 93.4114,19.3826 C93.7994,19.2266 94.1454,19.0236 94.4484,18.7776 C94.7514,18.5296 95.0104,18.2516 95.2284,17.9436 C95.4444,17.6366 95.6134,17.3456 95.7344,17.0746 L99.8974,18.2246 C99.7254,18.8296 99.4304,19.4606 99.0124,20.1176 C98.5934,20.7736 98.0484,21.3706 97.3774,21.9096 C96.7064,22.4496 95.9084,22.8966 94.9854,23.2496 C94.0624,23.6036 93.0104,23.7796 91.8294,23.7796 C90.6284,23.7796 89.5234,23.5606 88.5144,23.1206 C87.5054,22.6816 86.6374,22.0836 85.9114,21.3276 C85.1844,20.5706 84.6164,19.6836 84.2084,18.6636 C83.7994,17.6446 83.5954,16.5486 83.5954,15.3786 C83.5954,14.2186 83.8044,13.1406 84.2234,12.1466 C84.6424,11.1526 85.2194,10.2846 85.9564,9.5436 C86.6924,8.8016 87.5684,8.2246 88.5824,7.8106 C89.5974,7.3966 90.6994,7.2106 91.8904,7.2506 C92.7374,7.2106 93.5604,7.3056 94.3574,7.5376 C95.1544,7.7706 95.9114,8.1186 96.6284,8.5826 L99.6404,8.5826 L99.6404,13.1386 L95.4624,13.1386 L95.4624,13.1386 Z" id="Fill-11"></path>
                        <path d="M107.4463,20.207 C108.1623,20.207 108.8133,20.092 109.3993,19.859 C109.9843,19.627 110.4833,19.344 110.8973,19.012 L110.8973,17.014 L107.2643,17.014 C107.0323,17.014 106.8053,17.049 106.5833,17.119 C106.3613,17.189 106.1623,17.291 105.9863,17.422 C105.8093,17.553 105.6673,17.715 105.5623,17.906 C105.4553,18.098 105.4033,18.32 105.4033,18.572 C105.4033,19.037 105.5713,19.426 105.9093,19.738 C106.2483,20.051 106.7593,20.207 107.4463,20.207 L107.4463,20.207 L107.4463,20.207 Z M110.8973,22.553 C110.5443,22.775 110.2213,22.965 109.9283,23.121 C109.6353,23.277 109.3433,23.404 109.0503,23.5 C108.7583,23.596 108.4553,23.666 108.1423,23.711 C107.8293,23.756 107.4863,23.779 107.1133,23.779 C106.1753,23.779 105.3343,23.65 104.5933,23.393 C103.8513,23.137 103.2253,22.783 102.7163,22.334 C102.2063,21.885 101.8153,21.355 101.5433,20.744 C101.2703,20.135 101.1343,19.471 101.1343,18.754 C101.1343,18.027 101.2733,17.357 101.5503,16.74 C101.8283,16.125 102.2293,15.598 102.7543,15.158 C103.2783,14.721 103.9223,14.377 104.6843,14.129 C105.4463,13.883 106.3163,13.76 107.2953,13.76 C108.0113,13.76 108.6643,13.797 109.2553,13.873 C109.8453,13.947 110.3923,14.041 110.8973,14.152 L110.8973,13.668 C110.8973,13.275 110.8213,12.934 110.6703,12.646 C110.5193,12.359 110.3073,12.121 110.0343,11.936 C109.7623,11.749 109.4343,11.612 109.0503,11.526 C108.6673,11.441 108.2483,11.398 107.7943,11.398 C106.8453,11.398 106.0103,11.491 105.2893,11.678 C104.5683,11.865 103.8743,12.135 103.2083,12.488 L101.7553,9.551 C102.7843,8.845 103.8613,8.305 104.9873,7.932 C106.1123,7.559 107.3043,7.372 108.5663,7.372 C109.5453,7.372 110.4503,7.48 111.2833,7.697 C112.1153,7.914 112.8293,8.267 113.4253,8.757 C114.0203,9.246 114.4873,9.884 114.8253,10.671 C115.1633,11.458 115.3323,12.418 115.3323,13.547 L115.3323,19.254 L117.4363,19.254 L117.4363,23.4 L110.8973,23.4 L110.8973,22.553 L110.8973,22.553 Z" id="Fill-13"></path>
                        <path d="M119.6382,7.7197 L126.8122,7.7197 L126.8122,9.0817 C127.4572,8.5677 128.1842,8.1587 128.9922,7.8557 C129.7982,7.5527 130.6312,7.4017 131.4892,7.4017 C132.6792,7.4017 133.7012,7.6117 134.5542,8.0307 C135.4072,8.4487 136.0752,9.0877 136.5602,9.9447 C136.8932,9.5717 137.2692,9.2307 137.6882,8.9227 C138.1062,8.6157 138.5522,8.3477 139.0272,8.1207 C139.5012,7.8937 139.9982,7.7177 140.5182,7.5907 C141.0372,7.4647 141.5702,7.4017 142.1152,7.4017 C144.0322,7.4017 145.5052,7.9317 146.5342,8.9907 C147.5642,10.0507 148.0782,11.5997 148.0782,13.6387 L148.0782,19.2537 L150.3042,19.2537 L150.3042,23.4007 L143.1442,23.4007 L143.1442,14.4097 C143.1442,13.5217 142.9142,12.8257 142.4552,12.3207 C141.9962,11.8167 141.3582,11.5647 140.5402,11.5647 C139.9752,11.5647 139.4442,11.6977 138.9442,11.9657 C138.4452,12.2327 137.9472,12.6957 137.4522,13.3497 C137.4622,13.4607 137.4682,13.5737 137.4682,13.6917 L137.4682,14.0467 L137.4682,19.2537 L139.7392,19.2537 L139.7392,23.4007 L132.5782,23.4007 L132.5782,14.3787 C132.5782,13.9547 132.5132,13.5727 132.3822,13.2287 C132.2502,12.8867 132.0692,12.5937 131.8372,12.3517 C131.6052,12.1097 131.3302,11.9207 131.0122,11.7837 C130.6952,11.6467 130.3432,11.5747 129.9602,11.5647 C129.4552,11.5547 128.9332,11.6657 128.3942,11.8967 C127.8542,12.1287 127.3362,12.5587 126.8422,13.1837 L126.8422,19.2537 L129.3552,19.2537 L129.3552,23.4007 L119.6082,23.4007 L119.6082,19.2537 L121.9392,19.2537 L121.9392,11.8677 L119.6382,11.8677 L119.6382,7.7197 L119.6382,7.7197 Z" id="Fill-15"></path>
                        <path d="M161.0874,11.4282 C160.4514,11.4282 159.8564,11.5942 159.3014,11.9282 C158.7454,12.2602 158.2764,12.7302 157.8934,13.3362 L157.8934,17.7562 C158.2164,18.2692 158.6544,18.6892 159.2104,19.0112 C159.7654,19.3342 160.3914,19.4962 161.0874,19.4962 C161.6024,19.4962 162.0914,19.3962 162.5554,19.2012 C163.0194,19.0042 163.4234,18.7262 163.7664,18.3672 C164.1084,18.0102 164.3814,17.5862 164.5834,17.0952 C164.7854,16.6072 164.8864,16.0742 164.8864,15.5002 C164.8864,14.8632 164.7884,14.2952 164.5914,13.7892 C164.3954,13.2852 164.1244,12.8572 163.7814,12.5102 C163.4384,12.1622 163.0344,11.8952 162.5704,11.7072 C162.1064,11.5222 161.6114,11.4282 161.0874,11.4282 L161.0874,11.4282 L161.0874,11.4282 Z M151.5354,7.7202 L158.3774,7.7202 L158.3774,7.9472 C158.8614,7.7352 159.3564,7.5662 159.8604,7.4392 C160.3654,7.3132 160.8854,7.2502 161.4204,7.2502 C162.5704,7.2502 163.6404,7.4682 164.6294,7.9012 C165.6174,8.3352 166.4764,8.9262 167.2024,9.6722 C167.9294,10.4192 168.4964,11.2912 168.9054,12.2912 C169.3144,13.2892 169.5184,14.3492 169.5184,15.4692 C169.5184,16.5992 169.3184,17.6642 168.9204,18.6642 C168.5224,19.6622 167.9644,20.5332 167.2474,21.2732 C166.5304,22.0152 165.6764,22.6012 164.6824,23.0292 C163.6884,23.4592 162.6014,23.6742 161.4204,23.6742 C160.7544,23.6742 160.1334,23.6112 159.5584,23.4842 C158.9834,23.3572 158.4284,23.1792 157.8934,22.9472 L157.8934,26.3832 L160.8904,26.3832 L160.8904,30.5312 L150.6574,30.5312 L150.6574,26.3832 L153.2314,26.3832 L153.2314,11.8672 L151.5354,11.8672 L151.5354,7.7202 L151.5354,7.7202 Z" id="Fill-17"></path>
                    </g>
                </g>
            </g>
        </g>
    </g>
</svg>